<?xml version="1.0" encoding="iso-8859-1"?>
<!-- Uploaded to: SVG Repo, www.svgrepo.com, Generator: SVG Repo Mixer Tools -->
<svg fill="#000000" height="800px" width="800px" version="1.1" id="Layer_1" xmlns="http://www.w3.org/2000/svg" xmlns:xlink="http://www.w3.org/1999/xlink" 
	 viewBox="0 0 512 512" xml:space="preserve">
<g>
	<g>
		<path d="M418.472,323.875c4.427,0,8.017-3.589,8.017-8.017v-34.205c0-2.977-1.649-5.708-4.283-7.094l-158.189-83.257V179.04
			c0-4.427-3.589-8.017-8.017-8.017c-4.427,0-8.017,3.589-8.017,8.017v12.262L89.795,274.559c-2.634,1.386-4.283,4.117-4.283,7.094
			v34.205c0,4.427,3.589,8.017,8.017,8.017h17.637v137.887H93.528c-4.427,0-8.017,3.589-8.017,8.017v34.205
			c0,4.427,3.589,8.017,8.017,8.017h324.944c4.427,0,8.017-3.589,8.017-8.017v-34.205c0-4.427-3.589-8.017-8.017-8.017h-17.637
			V323.875H418.472z M410.455,477.795v18.171h-308.91v-18.171H410.455z M127.198,461.762V323.875h18.171v137.887H127.198z
			 M161.403,461.762V323.875h18.171v137.887H161.403z M195.608,461.762V323.875h18.171v137.887H195.608z M229.812,461.762V323.875
			h18.171v137.887H229.812z M264.017,461.762V323.875h18.171v137.887H264.017z M298.221,461.762V323.875h18.171v137.887H298.221z
			 M332.425,461.762V323.875h18.171v137.887H332.425z M366.63,461.762V323.875h18.171v137.887H366.63z M101.545,307.841v-21.349
			L256,205.201l154.455,81.292v21.349H101.545z"/>
	</g>
</g>
<g>
	<g>
		<path d="M352.366,39.917C326.626,14.176,292.402,0,256,0s-70.626,14.176-96.367,39.917c-3.131,3.131-3.131,8.207,0,11.337
			c3.131,3.131,8.207,3.131,11.337,0c22.713-22.712,52.91-35.22,85.03-35.22s62.318,12.508,85.029,35.22
			c1.565,1.565,3.617,2.348,5.668,2.348c2.051,0,4.104-0.782,5.668-2.348C355.497,48.123,355.497,43.047,352.366,39.917z"/>
	</g>
</g>
<g>
	<g>
		<path d="M322.134,70.149C304.469,52.484,280.982,42.756,256,42.756s-48.469,9.729-66.135,27.394
			c-3.131,3.131-3.131,8.207,0,11.337c3.131,3.131,8.207,3.131,11.337,0C215.84,66.85,235.301,58.789,256,58.789
			s40.16,8.062,54.797,22.698c1.565,1.565,3.617,2.347,5.668,2.347s4.104-0.782,5.668-2.348
			C325.264,78.355,325.264,73.279,322.134,70.149z"/>
	</g>
</g>
<g>
	<g>
		<path d="M291.901,100.382c-19.797-19.797-52.006-19.797-71.803,0c-3.131,3.131-3.131,8.207,0,11.337
			c3.131,3.131,8.207,3.131,11.337,0c13.545-13.545,35.584-13.545,49.128,0c1.566,1.566,3.618,2.348,5.669,2.348
			s4.103-0.782,5.668-2.348C295.032,108.588,295.032,103.512,291.901,100.382z"/>
	</g>
</g>
<g>
	<g>
		<path d="M256,128.267c-6.778,0-12.292,5.513-12.292,12.292c0,6.778,5.514,12.292,12.292,12.292
			c6.778,0,12.292-5.514,12.292-12.292C268.292,133.782,262.778,128.267,256,128.267z"/>
	</g>
</g>
<g>
	<g>
		<path d="M281.653,239.432h-51.307c-4.427,0-8.017,3.589-8.017,8.017s3.589,8.017,8.017,8.017h51.307
			c4.427,0,8.017-3.589,8.017-8.017S286.081,239.432,281.653,239.432z"/>
	</g>
</g>
<g>
	<g>
		<path d="M307.307,273.637H204.693c-4.427,0-8.017,3.589-8.017,8.017s3.589,8.017,8.017,8.017h102.614
			c4.427,0,8.017-3.589,8.017-8.017S311.734,273.637,307.307,273.637z"/>
	</g>
</g>
</svg>